<svg width="88" height="70" viewBox="0 0 88 70" fill="none" xmlns="http://www.w3.org/2000/svg">
<path d="M78.375 13.125H66.8516C66.2656 13.125 65.5391 12.7461 64.9727 12.1484L59.9062 4.15234C59.8261 4.02543 59.7367 3.90466 59.6387 3.79102C57.8887 1.75 55.5234 0.625 52.9844 0.625H35.0156C32.4766 0.625 30.1113 1.75 28.3613 3.79102C28.2633 3.90466 28.1739 4.02543 28.0938 4.15234L23.0273 12.1602C22.5937 12.6328 21.9844 13.1367 21.3438 13.1367V11.5742C21.3438 10.7454 21.0145 9.95056 20.4285 9.36451C19.8424 8.77846 19.0476 8.44922 18.2188 8.44922H13.5312C12.7024 8.44922 11.9076 8.77846 11.3215 9.36451C10.7355 9.95056 10.4062 10.7454 10.4062 11.5742V13.1367H9.625C7.13939 13.1393 4.75632 14.1279 2.99873 15.8854C1.24114 17.643 0.252585 20.0261 0.25 22.5117V60C0.252585 62.4856 1.24114 64.8687 2.99873 66.6263C4.75632 68.3839 7.13939 69.3724 9.625 69.375H78.375C80.8606 69.3724 83.2437 68.3839 85.0013 66.6263C86.7589 64.8687 87.7474 62.4856 87.75 60V22.5C87.7474 20.0144 86.7589 17.6313 85.0013 15.8737C83.2437 14.1161 80.8606 13.1276 78.375 13.125ZM44 56.875C40.2916 56.875 36.6665 55.7753 33.5831 53.7151C30.4996 51.6548 28.0964 48.7264 26.6773 45.3003C25.2581 41.8742 24.8868 38.1042 25.6103 34.4671C26.3337 30.8299 28.1195 27.489 30.7417 24.8667C33.364 22.2445 36.7049 20.4587 40.3421 19.7353C43.9792 19.0118 47.7492 19.3831 51.1753 20.8023C54.6014 22.2214 57.5298 24.6246 59.5901 27.7081C61.6503 30.7915 62.75 34.4166 62.75 38.125C62.7443 43.0961 60.767 47.8619 57.252 51.377C53.7369 54.892 48.9711 56.8693 44 56.875Z" fill="#25463D"/>
</svg>
