<svg width="69" height="69" viewBox="0 0 69 69" fill="none" xmlns="http://www.w3.org/2000/svg">
<path fill-rule="evenodd" clip-rule="evenodd" d="M33.8612 0.00316681H34.2222C41.534 0.00316681 47.2625 0.003167 51.7338 0.604834C56.3065 1.21917 59.9165 2.50483 62.7507 5.33583C65.5848 8.17 66.8673 11.78 67.4817 16.3558C68.0833 20.824 68.0833 26.5525 68.0833 33.8643V34.143C68.0833 40.1882 68.0833 45.1345 67.754 49.1625C67.4247 53.2158 66.7502 56.5947 65.2365 59.4067C64.5736 60.6438 63.745 61.7595 62.7507 62.7538C59.9165 65.588 56.3065 66.8705 51.7307 67.4848C47.2625 68.0865 41.534 68.0865 34.2222 68.0865H33.8612C26.5493 68.0865 20.8208 68.0865 16.3495 67.4848C11.7768 66.8705 8.16683 65.5848 5.33267 62.7538C2.8215 60.2427 1.52317 57.1172 0.836 53.2348C0.155167 49.4253 0.0316666 44.6848 0.00633325 38.8012C0.00211103 37.3023 0 35.7168 0 34.0448V33.8612C0 26.5493 1.88748e-07 20.8208 0.601667 16.3495C1.216 11.7768 2.50167 8.16683 5.33267 5.33267C8.16683 2.4985 11.7768 1.216 16.3527 0.601667C20.8208 1.88748e-07 26.5493 0 33.8612 0M16.9828 5.30733C12.9358 5.852 10.4943 6.89067 8.6925 8.6925C6.8875 10.4975 5.852 12.9358 5.30733 16.986C4.75633 21.1027 4.75 26.5113 4.75 34.0417V36.7143L7.91983 33.9403C9.31023 32.7232 11.1113 32.0801 12.9581 32.1413C14.8049 32.2024 16.5595 32.9633 17.8663 34.2697L31.4513 47.8547C32.5055 48.9087 33.8977 49.557 35.3829 49.6856C36.8681 49.8142 38.351 49.4148 39.5707 48.5577L40.5143 47.8927C42.274 46.6562 44.4011 46.0534 46.5479 46.1828C48.6946 46.3122 50.734 47.1662 52.3323 48.6052L61.294 56.6707C62.1997 54.777 62.7348 52.288 63.0198 48.7762C63.3302 44.9603 63.3333 40.204 63.3333 34.0417C63.3333 26.5113 63.327 21.1027 62.776 16.986C62.2313 12.9358 61.1927 10.4943 59.3908 8.68933C57.5858 6.8875 55.1475 5.852 51.0973 5.30733C46.9807 4.75633 41.572 4.75 34.0417 4.75C26.5113 4.75 21.0995 4.75633 16.9828 5.30733Z" fill="#25463D"/>
</svg>
